{"accessors" : [{"bufferView" : 0, "byteOffset" : 0, "componentType" : 5123, "count" : 30, "type" : "SCALAR", "max" : [24], "min" : [0]}, {"bufferView" : 1, "byteOffset" : 0, "componentType" : 5126, "count" : 25, "type" : "VEC3", "max" : [0.06930621713399887, 0.0238338652998209, 0.0728195533156395], "min" : [-0.06930574029684067, -0.13335852324962616, -0.0728195309638977], "name" : "POSITION"}, {"bufferView" : 1, "byteOffset" : 12, "componentType" : 5126, "count" : 25, "type" : "VEC2", "max" : [0.5431368350982666, 0.9652135968208313], "min" : [0.17016172409057617, 0.03611195087432861], "name" : "TEXCOORD_0"}, {"bufferView" : 0, "byteOffset" : 60, "componentType" : 5123, "count" : 96, "type" : "SCALAR", "max" : [64], "min" : [0]}, {"bufferView" : 2, "byteOffset" : 0, "componentType" : 5126, "count" : 65, "type" : "VEC3", "max" : [0.7214183211326599, 0, 0.7214183211326599], "min" : [-0.7214183211326599, 0, -0.7214183211326599], "name" : "POSITION"}, {"bufferView" : 2, "byteOffset" : 12, "componentType" : 5126, "count" : 65, "type" : "VEC2", "max" : [1, 1], "min" : [0, 0], "name" : "TEXCOORD_0"}, {"bufferView" : 0, "byteOffset" : 252, "componentType" : 5123, "count" : 30, "type" : "SCALAR", "max" : [24], "min" : [0]}, {"bufferView" : 3, "byteOffset" : 0, "componentType" : 5126, "count" : 25, "type" : "VEC3", "max" : [0.06930621713399887, 0.0238338652998209, 0.0728195533156395], "min" : [-0.06930574029684067, -0.13335852324962616, -0.0728195309638977], "name" : "POSITION"}, {"bufferView" : 3, "byteOffset" : 12, "componentType" : 5126, "count" : 25, "type" : "VEC2", "max" : [0.5431368350982666, 0.9652135968208313], "min" : [0.17016172409057617, 0.03611195087432861], "name" : "TEXCOORD_0"}, {"bufferView" : 0, "byteOffset" : 312, "componentType" : 5123, "count" : 3879, "type" : "SCALAR", "max" : [3230], "min" : [0]}, {"bufferView" : 4, "byteOffset" : 0, "componentType" : 5126, "count" : 3231, "type" : "VEC3", "max" : [2, 1.7663004398345947, 2], "min" : [-2, 0, -2.0141689777374268], "name" : "POSITION"}, {"bufferView" : 4, "byteOffset" : 12, "componentType" : 5126, "count" : 3231, "type" : "VEC2", "max" : [0.9950710535049438, 0.992264986038208], "min" : [0.0005113184452056885, 0.0011858940124511719], "name" : "TEXCOORD_0"}], "asset" : {"generator" : "Aspose.3D 22.1", "version" : "2.0"}, "buffers" : [{"uri" : "data:application/octet-stream;base64,", "byteLength" : 88792}], "bufferViews" : [{"buffer" : 0, "byteOffset" : 0, "byteLength" : 8072, "target" : 34963}, {"buffer" : 0, "byteOffset" : 8076, "byteLength" : 600, "byteStride" : 20, "target" : 34962}, {"buffer" : 0, "byteOffset" : 8680, "byteLength" : 1920, "byteStride" : 20, "target" : 34962}, {"buffer" : 0, "byteOffset" : 10604, "byteLength" : 600, "byteStride" : 20, "target" : 34962}, {"buffer" : 0, "byteOffset" : 11208, "byteLength" : 77580, "byteStride" : 20, "target" : 34962}], "meshes" : [{"primitives" : [{"attributes" : {"POSITION" : 1, "TEXCOORD_0" : 2}, "indices" : 0, "mode" : 4}]}, {"primitives" : [{"attributes" : {"POSITION" : 4, "TEXCOORD_0" : 5}, "indices" : 3, "mode" : 4}]}, {"primitives" : [{"attributes" : {"POSITION" : 7, "TEXCOORD_0" : 8}, "indices" : 6, "mode" : 4}]}, {"primitives" : [{"attributes" : {"POSITION" : 10, "TEXCOORD_0" : 11}, "indices" : 9, "mode" : 4}]}], "nodes" : [{"matrix" : [1, 0, 0, 0, 0, 1, 0, 0, 0, 0, 1, 0, 0.7146409749984741, 1.0659117698669434, 0.23380741477012634, 1], "mesh" : 0, "name" : "poleLightA"}, {"matrix" : [1, 0, 0, 0, 0, 3.422854177870249E-08, 1.0000000500651538, 0, 0, -1.0000000500651538, 3.422854177870249E-08, 0, 0, 0.8510270118713379, -1.7743580341339111, 1], "mesh" : 1, "name" : "portalLight"}, {"matrix" : [-1, 0, 1.5099580252808664E-07, 0, 0, 1, 0, 0, -1.5099580252808664E-07, 0, -1, 0, -0.6417164206504822, 1.0659117698669434, 0.23380739986896515, 1], "mesh" : 2, "name" : "poleLightB"}, {"mesh" : 3, "name" : "baked"}], "scene" : 0, "scenes" : [{"nodes" : [0, 1, 2, 3]}]}